<?xml version="1.0" standalone="no"?>
<!DOCTYPE svg PUBLIC "-//W3C//DTD SVG 1.1//EN" "http://www.w3.org/Graphics/SVG/1.1/DTD/svg11.dtd" >
<svg xmlns="http://www.w3.org/2000/svg">
<metadata>Generated by IcoMoon</metadata>
<defs>
<font id="icomoon" horiz-adv-x="1024">
<font-face units-per-em="1024" ascent="960" descent="-64" />
<missing-glyph horiz-adv-x="1024" />
<glyph unicode="&#x20;" horiz-adv-x="512" d="" />
<glyph unicode="&#xe900;" glyph-name="caret-down" d="M984.6 748h-929.2c-27.8 0-43.4-29.4-26.2-49.6l464.6-538.8c13.2-15.4 39-15.4 52.4 0l464.6 538.8c17.2 20 1.6 49.6-26.2 49.6z" />
<glyph unicode="&#xe901;" glyph-name="exit" d="M768 320v128h-320v128h320v128l192-192zM704 384v-256h-320v-192l-384 192v832h704v-320h-64v256h-512l256-128v-576h256v192z" />
<glyph unicode="&#xe902;" glyph-name="user" d="M576 253.388v52.78c70.498 39.728 128 138.772 128 237.832 0 159.058 0 288-192 288s-192-128.942-192-288c0-99.060 57.502-198.104 128-237.832v-52.78c-217.102-17.748-384-124.42-384-253.388h896c0 128.968-166.898 235.64-384 253.388z" />
<glyph unicode="&#xe903;" glyph-name="check-circle" d="M699 607h-46.9c-10.2 0-19.9-4.9-25.9-13.3l-157.2-218-71.2 98.8c-6 8.3-15.6 13.3-25.9 13.3h-46.9c-6.5 0-10.3-7.4-6.5-12.7l124.6-172.8c12.7-17.7 39-17.7 51.7 0l210.6 292c3.9 5.3 0.1 12.7-6.4 12.7zM512 896c-247.4 0-448-200.6-448-448s200.6-448 448-448 448 200.6 448 448-200.6 448-448 448zM512 76c-205.4 0-372 166.6-372 372s166.6 372 372 372 372-166.6 372-372-166.6-372-372-372z" />
<glyph unicode="&#xe904;" glyph-name="home" d="M946.5 455l-412.3 412.1c-12.3 12.2-32.1 12.2-44.4 0l-412.3-412.1c-12.3-12.3-18.9-28.6-18.8-46 0.4-35.2 29.7-63.3 64.9-63.3h42.5v-325.7h691.8v325.7h43.4c17.1 0 33.2 6.7 45.3 18.8s18.7 28.2 18.7 45.3c0 17-6.7 33.1-18.8 45.2zM568 92h-112v204h112v-204zM785.9 417.7v-325.7h-153.9v228c0 22.1-17.9 40-40 40h-160c-22.1 0-40-17.9-40-40v-228h-153.9v325.7h-96l370 369.7 369.9-369.7h-96.1z" />
<glyph unicode="&#xe905;" glyph-name="qq" d="M654.336 27.648c-1.024 0-1.536 0-2.56 0-52.736 0-111.616 3.072-140.288 6.144-28.672-3.072-87.552-6.144-140.288-6.144-1.024 0-1.536 0-2.56 0-102.4 0-116.736 10.24-124.416 22.528-5.632 9.728-6.656 20.48-2.56 30.208 6.144 15.36 24.064 29.696 53.76 41.984-27.648 30.72-45.056 64.512-53.76 95.744-37.376-50.688-52.736-48.64-60.416-47.616-4.096 0.512-12.288 2.56-17.92 11.776-15.36 24.064-9.728 89.088 15.36 170.496 13.824 43.52 28.672 81.408 49.664 133.632 3.584 9.216 7.68 18.944 11.776 29.184-2.56 119.808 29.184 219.136 89.088 280.576 46.592 47.616 107.52 71.68 181.76 71.68s135.168-24.064 181.76-71.68c59.904-61.44 91.648-160.768 89.6-281.088 4.096-10.752 8.192-20.992 12.288-30.208 20.992-51.712 35.84-89.088 49.664-132.608v0c25.6-81.92 31.232-145.408 15.36-169.984-5.632-9.216-13.824-11.264-17.92-11.776-7.68-1.024-23.552-3.072-60.416 47.616-9.216-31.232-26.112-65.024-54.272-95.744 29.696-12.288 48.128-26.624 53.76-41.984 4.096-10.24 3.072-20.992-2.56-30.208-7.168-12.288-21.504-22.528-123.904-22.528zM511.488 74.752l2.048-0.512c58.368-6.656 179.712-9.216 221.696-2.048-9.216 6.144-27.136 14.848-52.224 22.528l-35.84 11.264 28.672 24.064c53.76 45.056 72.704 105.472 72.704 143.36v72.192l37.888-61.44c13.824-22.016 29.184-44.032 40.96-58.368 0 21.504-5.12 58.368-22.528 114.688-12.8 41.984-27.648 78.336-48.128 129.536-4.096 10.752-8.704 22.016-13.824 34.304l-1.536 4.096v4.096c2.56 110.592-25.088 201.728-77.824 255.488-38.4 39.424-89.6 59.392-152.576 59.392s-114.176-19.968-152.576-59.392c-52.224-54.272-79.872-144.896-76.8-255.488v-4.096l-1.536-4.096c-4.608-11.776-9.216-23.040-13.312-33.28-20.48-51.2-35.84-88.064-48.64-130.56-17.408-56.32-22.016-93.184-22.528-114.688 11.776 14.336 27.136 35.84 40.96 57.856l37.888 61.44v-72.192c0-37.888 18.944-98.304 72.704-143.36l28.672-24.064-35.84-11.264c-25.088-7.68-43.008-16.384-52.224-22.528 41.984-6.656 163.328-4.096 221.696 2.048l2.048 1.024z" />
<glyph unicode="&#xe906;" glyph-name="pwd2" d="M832 496h-68v224c0 70.7-57.3 128-128 128h-248c-70.7 0-128-57.3-128-128v-224h-68c-17.7 0-32-14.3-32-32v-384c0-17.7 14.3-32 32-32h640c17.7 0 32 14.3 32 32v384c0 17.7-14.3 32-32 32zM332 720c0 30.9 25.1 56 56 56h248c30.9 0 56-25.1 56-56v-224h-360v224zM792 120h-560v304h560v-304zM484 259v-53c0-4.4 3.6-8 8-8h40c4.4 0 8 3.6 8 8v53c12.1 8.7 20 22.9 20 39 0 26.5-21.5 48-48 48s-48-21.5-48-48c0-16.1 7.9-30.3 20-39z" />
<glyph unicode="&#xe907;" glyph-name="mail" d="M918.544 792h-813.091c-17.298 0-31.273-13.975-31.273-31.273v-625.455c0-17.298 13.975-31.273 31.273-31.273h813.091c17.298 0 31.273 13.975 31.273 31.273v625.455c0 17.298-13.975 31.273-31.273 31.273zM879.455 683.718v-509.355h-734.909v509.355l-26.973 21.011 38.407 49.352 41.827-32.543h628.484l41.827 32.543 38.407-49.352-27.070-21.011zM826.291 721.636l-314.291-244.318-356.118 276.861-38.407-49.352 26.973-21.011 333.836-259.564c19.741-15.343 47.398-15.343 67.139 0l361.005 280.477-38.407 49.352-41.73-32.445z" />
<glyph unicode="&#xe908;" glyph-name="phone" d="M877.1 721.3l-106.5 106.4c-13 13-30.4 20.3-48.8 20.3s-35.8-7.2-48.8-20.3l-114.7-114.5c-13-13-20.3-30.5-20.3-48.9 0-18.5 7.2-35.8 20.3-48.9l89.6-89.7c-20.6-47.8-49.6-90.6-86.4-127.3-36.7-36.9-79.6-66-127.2-86.6l-89.6 89.7c-13 13-30.4 20.3-48.8 20.3-18.5 0-35.8-7.2-48.8-20.3l-114.8-114.5c-13-13-20.3-30.5-20.3-48.9 0-18.5 7.2-35.8 20.3-48.9l106.4-106.4c22.2-22.2 52.8-34.9 84.2-34.9 6.5 0 12.8 0.5 19.2 1.6 132.4 21.8 263.8 92.3 369.9 198.3 106 106.2 176.4 237.6 198.4 370.1 6.3 37.6-6.3 76.3-33.3 103.4zM839.5 629.8c-19.5-117.9-82.9-235.5-178.4-331s-213-158.9-330.9-178.4c-14.8-2.5-30 2.5-40.8 13.2l-104.5 104.5 110.8 110.9 120.7-120.9 21.6 8c132.7 48.9 236.9 153.1 285.7 285.8l8 21.6-120.8 120.7 110.8 110.9 104.5-104.5c10.8-10.8 15.8-26 13.3-40.8z" />
<glyph unicode="&#xe909;" glyph-name="code3" d="M866.9 790.1l-339.8 115.8c-4.1 1.4-9.6 2.1-15.1 2.1s-11-0.7-15.1-2.1l-339.8-115.8c-8.3-2.8-15.1-12.4-15.1-21.2v-482.4c0-8.8 5.7-20.4 12.6-25.9l344.7-268.6c3.5-2.7 8-4.1 12.6-4.1s9.2 1.4 12.6 4.1l344.7 268.6c6.9 5.4 12.6 17 12.6 25.9v482.4c0.2 8.8-6.6 18.3-14.9 21.2zM810 305.7l-298-232.2-298 232.2v427.6l298 101.6 298-101.6v-427.6zM404.2 506.7c-3 4.1-7.8 6.6-13 6.6h-55.2c-6.5 0-10.3-7.4-6.5-12.7l126.4-174c6.4-8.8 19.6-8.8 26 0l212.6 292.7c3.8 5.3 0 12.7-6.5 12.7h-55.2c-5.1 0-10-2.5-13-6.6l-150.9-207.8-64.7 89.1z" />
<glyph unicode="&#xe90a;" glyph-name="user2" d="M858.5 196.4c-18.9 44.8-46.1 85-80.6 119.5s-74.7 61.6-119.5 80.6c-0.4 0.2-0.8 0.3-1.2 0.5 62.3 45 102.8 118.3 102.8 201 0 137-111 248-248 248s-248-111-248-248c0-82.7 40.5-156 102.8-201.1-0.4-0.2-0.8-0.3-1.2-0.5-44.8-18.9-85-46-119.5-80.6-34.5-34.5-61.6-74.7-80.6-119.5-18.6-43.8-28.5-90.3-29.5-138.1-0.1-4.5 3.5-8.2 8-8.2h60c4.4 0 7.9 3.5 8 7.8 2 77.2 33 149.5 87.8 204.3 56.7 56.7 132 87.9 212.2 87.9s155.5-31.2 212.2-87.9c54.8-54.8 85.8-127.1 87.8-204.3 0.1-4.4 3.6-7.8 8-7.8h60c4.5 0 8.1 3.7 8 8.2-1 47.8-10.9 94.3-29.5 138.2zM512 426c-45.9 0-89.1 17.9-121.6 50.4s-50.4 75.7-50.4 121.6c0 45.9 17.9 89.1 50.4 121.6s75.7 50.4 121.6 50.4 89.1-17.9 121.6-50.4 50.4-75.7 50.4-121.6c0-45.9-17.9-89.1-50.4-121.6s-75.7-50.4-121.6-50.4z" />
<glyph unicode="&#xe90b;" glyph-name="1" d="M766.439 16.442c-4.43 0-7.182 0.145-7.476 0.161l-0.291 0.018c-42.736 3.024-90.968 17.787-139.484 42.693l-0.587 0.315-54.079 30.249c-102.55 56.177-259.853 218.356-266.501 225.234l-11.432 11.828 0.092 0.115c-27.666 29.688-84.595 94.661-133.903 175.608-55.478 91.075-81.613 169.619-77.678 233.449 2.923 47.425 22.464 85.973 58.080 114.573 38.269 30.729 73.25 43.541 106.933 39.163 36.108-4.691 69.020-28.681 103.574-75.497 2.308-3.127 4.592-6.207 6.843-9.245 25.68-34.643 47.858-64.562 55.936-95.558 9.428-36.174-1.876-69.727-34.558-102.576l-1.134-1.14-0.239-0.143c-1.543-1.577-8.922-10.054-9.1-28.119-0.18-18.292 6.823-40.116 20.814-64.866 19.221-34 51.161-72.403 94.934-114.142 73.369-69.476 120.597-88.595 147.29-92.391 23.401-3.33 33.678 4.654 35.458 6.243l0.307 0.429-0.251-0.379c0.052 0.048 0.096 0.088 0.13 0.121 27.875 32.115 63.649 42.731 106.33 31.549 30.785-8.065 64.736-26.94 110.083-61.2 34.674-26.195 55.873-52.228 64.806-79.589 9.914-30.357 5.176-61.742-14.483-95.946-5.145-8.954-16.573-12.040-25.526-6.893-8.952 5.145-12.039 16.573-6.893 25.526 14.275 24.838 17.885 45.717 11.358 65.705-6.483 19.854-23.428 39.926-51.801 61.361-53.48 40.404-80.984 50.662-97.020 54.863-29.010 7.6-50.219 1.41-68.768-20.065-2.237-2.579-16.856-18.028-47.286-19.762-50.307-2.858-114.065 31.899-189.49 103.322-86.844 82.807-129.657 153.371-127.296 209.776 1.333 31.846 17.013 48.312 21.691 52.539 46.8 47.34 27.249 78.139-25.33 149.069-2.267 3.058-4.565 6.159-6.888 9.307-28.098 38.068-52.98 57.331-78.306 60.622-23.049 2.994-48.796-7.224-78.702-31.237-27.442-22.038-41.891-50.73-44.171-87.719-3.407-55.262 21.592-128.466 72.29-211.696 55.645-91.352 121.351-161.616 140.164-180.975l2.492-2.564c20.532-20.968 164.289-166.18 255.179-215.937l0.149-0.083 53.863-30.126c43.89-22.492 86.947-35.799 124.562-38.495 1.386-0.062 16.68-0.665 33.288 2.122 5.99 1.005 12.459 2.229 19.306 3.522 25.758 4.868 57.814 10.928 100.93 12.645 10.297 0.403 19.015-7.62 19.425-17.937s-7.619-19.015-17.937-19.425c-40.364-1.609-70.922-7.385-95.474-12.026-7.041-1.33-13.691-2.587-20.059-3.656-13.709-2.3-26.467-2.737-34.163-2.737z" />
<glyph unicode="&#xe90c;" glyph-name="redpacket" d="M256 128.064v526.72l213.792-95.040c12.224-5.44 27.2-8.16 42.208-8.16 14.976 0 29.952 2.72 42.176 8.128l213.856 95.040 0.16-526.72h-512.192zM768 767.904v-43.104l-239.808-106.56c-7.872-3.52-24.544-3.52-32.384 0l-239.808 106.56v43.104l-0.224 0.096 512.224-0.096zM768.192 832h-512.416c-35.25-0.127-63.776-28.732-63.776-64 0-0.034 0-0.068 0-0.102v0.005-639.84c0-0.019 0-0.042 0-0.064 0-35.267 28.526-63.872 63.764-64h512.428c35.264 0.109 63.808 28.721 63.808 64 0 0.023 0 0.045 0 0.068v-0.004 639.84c0 0.019 0 0.042 0 0.064 0 35.285-28.541 63.904-63.796 64.032h-0.012zM608 339.2c12.371 0 22.4 10.029 22.4 22.4s-10.029 22.4-22.4 22.4h-64.352l0.192 0.16 64 64c4.054 4.054 6.561 9.654 6.561 15.84 0 12.372-10.029 22.401-22.401 22.401-6.186 0-11.786-2.507-15.84-6.561l-64.16-64.224-0.16 0.224-64 64c-4.054 4.054-9.654 6.561-15.84 6.561-12.372 0-22.401-10.029-22.401-22.401 0-6.186 2.507-11.786 6.561-15.84v0l64.192-64.16h-64.352c-12.371 0-22.4-10.029-22.4-22.4s10.029-22.4 22.4-22.4h73.6v-51.2h-73.6c-12.371 0-22.4-10.029-22.4-22.4s10.029-22.4 22.4-22.4h73.6v-19.2c0-12.371 10.029-22.4 22.4-22.4s22.4 10.029 22.4 22.4v19.2h73.6c12.371 0 22.4 10.029 22.4 22.4s-10.029 22.4-22.4 22.4h-73.6v51.2h73.6z" />
<glyph unicode="&#xe90d;" glyph-name="group" d="M864 115.232c-0.392-0.389-0.913-0.647-1.494-0.703l-0.010-0.001-574.496 1.376v118.016c0 5.824 6.016 14.944 12.096 17.44 1.568 0.64 156.896 68.64 275.904 68.64 118.752 0 274.336-68 276.864-69.088 5.216-2.080 11.136-11.168 11.136-17.024v-118.656zM480.48 519.2v104.736c0 0 0 0 0 0 0 61.79 50.009 111.9 111.76 112.064h0.016c61.746-0.146 111.744-50.234 111.744-112 0-0.023 0-0.045 0-0.068v0.004-104.736c0-0.019 0-0.042 0-0.064 0-61.766-49.998-111.854-111.73-112h-0.014c-61.76 0.127-111.776 50.223-111.776 112 0 0.023 0 0.045 0 0.068v-0.004zM877.728 309.92c-4.992 2.176-92.64 40.384-191.008 61.056 49.152 31.741 81.239 86.231 81.28 148.218v104.742c0 97.088-78.848 176.064-175.744 176.064-96.928 0-175.776-78.976-175.776-176.064v-104.736c0-59.136 29.344-111.456 74.112-143.36-108.16-18.72-210.752-63.488-215.552-65.6-29.088-12-51.040-44.8-51.040-76.384v-126.4h0.544c4.387-32.312 31.795-56.954 64.959-56.96h572.993c28.672 0 54.304 18.752 63.808 46.72l1.696 4.96v131.744c0 31.808-22.016 64.672-50.272 76zM360.384 386.56c1.024 0 1.952-0.288 2.976-0.288 17.673 0 32 14.327 32 32s-14.327 32-32 32v0c-37.921 0.055-68.64 30.808-68.64 68.736 0 0.011 0 0.023 0 0.034v-0.002 84.256c0 37.856 30.784 68.704 68.64 68.704 17.673 0 32 14.327 32 32s-14.327 32-32 32v0c-73.245-0.109-132.585-59.484-132.64-132.731v-84.261c0-32.736 12.352-62.368 32.064-85.536-62.72-19.296-117.536-49.696-127.584-55.456-22.848-10.816-39.2-36.704-39.2-62.464v-91.904c0-17.673 14.327-32 32-32s32 14.327 32 32v0 91.744c0.436 1.802 1.248 3.372 2.351 4.69l-0.015-0.018c1.408 0.601 2.586 1.212 3.712 1.897l-0.128-0.073c30.432 17.728 123.84 63.712 189.76 63.712 1.632 0 3.104 0.704 4.704 0.96z" />
<glyph unicode="&#xe90e;" glyph-name="browse" d="M812.896 431.104c-0.736-2.048-82.080-207.104-308.736-207.104-225.44 0-305.248 198.24-309.696 209.376-3.2 6.4-2.944 21.28 1.376 29.92 0.896 2.048 91.936 208.704 308.32 208.704 215.296 0 304.384-199.776 309.248-210.752 3.296-6.176 3.552-21.344-0.512-30.144zM871.008 488.992c-4.288 10.080-108.768 247.008-366.848 247.008s-362.816-237.44-366.24-245.568c-12.704-24.896-13.056-60.896-1.984-82.752 0.96-2.496 98.048-247.68 368.224-247.68 270.144 0 367.552 245.696 367.552 246.016 11.712 24.832 10.912 61.6-0.704 82.976zM568.16 408.032c-0.018-35.345-28.657-63.996-63.997-64.032h-0.003c-35.296 0-64 28.704-64 64.032v71.904c0 35.328 28.704 64.064 64 64.064s64-28.736 64-64.064v-71.904zM504.16 608c-70.592 0-128-57.44-128-128.064v-71.904c0.073-70.67 57.333-127.941 127.991-128.032h0.009c70.592 0 128 57.44 128 128.032v71.904c-0.055 70.683-57.322 127.973-127.991 128.064h-0.009z" />
<glyph unicode="&#xe90f;" glyph-name="uniE90F" d="M645.1 428.1c108.6 73.6 136.9 221.3 63.3 329.9s-221.2 136.8-329.8 63.2-136.9-221.2-63.3-329.8c16.9-24.9 38.4-46.4 63.3-63.3-163.8-47.7-281.9-180.6-281.9-337.1v-59.2h237.3v59.2h-178c0 160.9 153.9 292 345.7 296.4h20c55.3-1.2 109.8-13.4 160.3-36.1l-177.3-177-83.6 83.8-41.8-42 125.9-125.9 230.8 230.7c79.7-49.8 129.1-136.3 131.6-230.2h-177.8v-58.9h237.5v59.2c0 156.5-118.1 289.4-282.2 337.1zM512 447.1c-98.2 0-177.8 79.6-177.8 177.8s79.6 177.8 177.8 177.8c98.2 0 177.8-79.6 177.8-177.8s-79.6-177.8-177.8-177.8z" />
<glyph unicode="&#xe910;" glyph-name="mobile2" d="M700.251 872.559h-389.51c-54.922 0-99.726-44.805-99.726-99.726v-654.724c0-54.922 44.805-99.726 99.726-99.726h389.51c54.922 0 99.726 44.805 99.726 99.726v655.447c0 54.922-44.805 99.004-99.726 99.004zM310.741 821.973h389.51c26.738 0 49.14-21.68 49.14-49.14v-504.412h-487.791v505.135c0 26.738 22.402 48.418 49.14 48.418zM700.251 68.968h-389.51c-26.738 0-49.14 21.68-49.14 49.14v99.726h487.791v-99.726c0-26.738-21.68-49.14-49.14-49.14zM540.545 171.585h-70.097c-13.73 0-25.293-11.562-25.293-25.293s11.562-25.293 25.293-25.293h70.097c13.73 0 25.293 11.562 25.293 25.293s-10.84 25.293-25.293 25.293zM382.284 738.868c0-0.002 0-0.003 0-0.005 0-15.166 12.295-27.461 27.461-27.461s27.461 12.295 27.461 27.461c0 0.002 0 0.004 0 0.006v0c0 0.002 0 0.003 0 0.005 0 15.166-12.295 27.461-27.461 27.461s-27.461-12.295-27.461-27.461c0-0.002 0-0.004 0-0.006v0zM478.397 738.868c0-0.002 0-0.003 0-0.005 0-15.166 12.295-27.461 27.461-27.461s27.461 12.295 27.461 27.461c0 0.002 0 0.004 0 0.006v0c0 0.002 0 0.003 0 0.005 0 15.166-12.295 27.461-27.461 27.461s-27.461-12.295-27.461-27.461c0-0.002 0-0.004 0-0.006v0zM574.51 738.868c0-15.166 12.295-27.461 27.461-27.461s27.461 12.295 27.461 27.461v0c0 15.166-12.295 27.461-27.461 27.461s-27.461-12.295-27.461-27.461v0z" />
<glyph unicode="&#xe911;" glyph-name="totop" d="M885 180h-720c-4.4 0-8-3.6-8-8v-60c0-4.4 3.6-8 8-8h720c4.4 0 8 3.6 8 8v60c0 4.4-3.6 8-8 8zM400 634.3h73.9v-338.3c0-4.4 3.6-8 8-8h60c4.4 0 8 3.6 8 8v338.3h74.1c6.7 0 10.4 7.7 6.3 12.9l-112 141.8c-3.2 4.1-9.4 4.1-12.6 0l-112-141.7c-4.1-5.3-0.4-13 6.3-13z" />
<glyph unicode="&#xe912;" glyph-name="caigou" d="M746.667 682.667h-42.667v192c0 36.267-27.733 64-64 64s-64-27.733-64-64v-192h-42.667l106.667-128 106.667 128zM618.667 874.667c0 12.8 8.533 21.333 21.333 21.333s21.333-8.533 21.333-21.333v-228.267l-21.333-25.6-21.333 25.6v228.267zM1002.667 597.333h-170.667c-12.8 0-21.333-8.533-21.333-21.333s8.533-21.333 21.333-21.333h57.6l-164.267-526.933c-6.4-17.067-21.333-29.867-38.4-29.867h-352c-17.067 0-32 10.667-38.4 29.867l-162.133 526.933h313.6c12.8 0 21.333 8.533 21.333 21.333s-8.533 21.333-21.333 21.333h-426.667c-12.8 0-21.333-8.533-21.333-21.333s8.533-21.333 21.333-21.333h70.4l168.533-539.733c10.667-34.133 40.533-57.6 76.8-57.6h352c34.133 0 64 23.467 76.8 57.6l166.4 539.733h70.4c12.8 0 21.333 8.533 21.333 21.333s-8.533 21.333-21.333 21.333zM640 341.333c0 12.8-8.533 21.333-21.333 21.333h-341.333c-12.8 0-21.333-8.533-21.333-21.333s8.533-21.333 21.333-21.333h341.333c12.8 0 21.333 8.533 21.333 21.333zM448 149.333h234.667c12.8 0 21.333 8.533 21.333 21.333s-8.533 21.333-21.333 21.333h-234.667c-12.8 0-21.333-8.533-21.333-21.333s8.533-21.333 21.333-21.333z" />
<glyph unicode="&#xe913;" glyph-name="dingdan" d="M794.336 730.645c20.912 0 37.926-17.014 37.926-37.927v-1.835l0.151-1.829 48.474-590.844c-0.783-20.226-17.483-36.442-37.898-36.442h-661.98c-20.415 0-37.115 16.216-37.898 36.442l48.624 592.674v1.835c0 20.913 17.014 37.927 37.926 37.927h564.675zM794.336 775.466h-564.675c-45.7 0-82.747-37.048-82.747-82.747l-48.652-593.023c0-45.7 37.048-82.747 82.747-82.747h661.98c45.7 0 82.747 37.048 82.747 82.747l-48.652 593.023c0.001 45.699-37.046 82.747-82.747 82.747zM337.744 610.971c0-22.85 18.524-41.374 41.374-41.374s41.374 18.524 41.374 41.374v0c0 22.85-18.524 41.374-41.374 41.374s-41.374-18.524-41.374-41.374v0zM603.508 610.971c0-22.85 18.524-41.374 41.374-41.374s41.374 18.524 41.374 41.374v0c0 22.85-18.524 41.374-41.374 41.374s-41.374-18.524-41.374-41.374v0zM401.668 645.453v123.116c0 60.836 49.494 110.33 110.33 110.33s110.33-49.494 110.33-110.33v-123.116h44.821v123.116c0 85.688-69.464 155.151-155.151 155.151s-155.151-69.464-155.151-155.151v-123.116h44.821z" />
<glyph unicode="&#xe914;" glyph-name="chanping" d="M508.885 878.222c14.99 0 29.568-2.944 39.993-8.078l287.388-141.44c4.565-2.247 15.189-8.42 15.246-17.266 0.043-6.329-5.845-13.113-15.744-18.133l-290.432-147.47c-11.193-5.689-26.766-8.946-42.709-8.946-14.99 0-29.568 2.944-39.993 8.078l-287.403 141.44c-4.565 2.247-15.189 8.42-15.246 17.266-0.043 6.329 5.845 13.113 15.758 18.133l290.432 147.456c11.207 5.703 26.766 8.96 42.709 8.96zM508.885 906.667c-20.565 0-40.306-4.281-55.58-12.032l-290.418-147.47c-20.011-10.169-31.431-26.084-31.317-43.676 0.114-17.408 11.463-32.939 31.147-42.61l287.388-141.426c14.407-7.097 33.067-10.994 52.551-10.994 20.565 0 40.306 4.281 55.58 12.032l290.432 147.47c20.011 10.169 31.417 26.084 31.303 43.676-0.114 17.394-11.463 32.939-31.132 42.61l-287.403 141.426c-14.407 7.083-33.067 10.994-52.551 10.994zM145.209 586.61c5.561 0 11.748-1.65 18.29-4.836l257.408-135.054c22.756-11.221 38.030-35.072 38.030-50.29v-363.164c0-9.7-5.973-15.488-15.986-15.488-5.561 0-11.762 1.65-18.29 4.821l-257.408 135.054c-22.756 11.236-38.030 35.072-38.030 50.29v363.193c0.014 9.685 5.988 15.474 15.986 15.474zM145.209 615.054c-25.728 0-44.416-18.475-44.416-43.932v-363.179c0-28.103 23.14-60.629 53.888-75.804l257.408-135.054c10.567-5.148 20.949-7.765 30.876-7.765 25.742 0 44.416 18.475 44.43 43.918v363.193c0 28.103-23.154 60.629-53.888 75.804l-257.422 135.054c-10.567 5.148-20.949 7.765-30.876 7.765zM878.791 586.624c9.998 0 15.972-5.788 15.972-15.488v-363.179c0-15.218-15.289-39.068-38.656-50.617l-257.010-134.855c-6.514-3.129-12.587-4.722-18.048-4.722-10.012 0-15.986 5.788-15.986 15.474v363.193c0 15.232 15.275 39.068 38.656 50.617l257.010 134.855c6.514 3.129 12.601 4.722 18.062 4.722zM878.791 615.068c-9.927 0-20.324-2.617-30.876-7.78l-257.408-135.054c-30.748-15.175-53.888-47.701-53.888-75.804v-363.179c0-25.444 18.688-43.918 44.43-43.918 9.927 0 20.309 2.617 30.876 7.765l257.408 135.054c30.748 15.175 53.888 47.701 53.888 75.804v363.179c-0.014 25.458-18.688 43.932-44.43 43.932z" />
<glyph unicode="&#xe915;" glyph-name="cangku" d="M32 791.232c0-70.080 0-139.84 0-209.92 10.944 0 21.504 0 33.216 0 0-159.296 0-317.952 0-476.544 300.736 0 600.832 0 901.568 0 0 158.976 0 317.632 0 476.736 8.896 0 17.088 0 25.28 0 0 70.272 0 140.032 0 209.728-320.256 0-640.128 0-960.064 0zM921.92 148.672c-270.848 0-541.504 0-812.48 0 0 144.192 0 288 0 432.256 270.784 0 541.376 0 812.48 0 0-143.872 0-287.68 0-432.256zM947.968 625.792c-290.496 0-580.992 0-872.064 0 0 40.576 0 80.704 0 121.344 290.688 0 581.184 0 872.064 0 0-40.448 0-80.576 0-121.344zM877.504 519.36c-84.864 0-169.408 0-254.208 0 0-18.24 0-36.032 0-54.272 85.056 0 169.536 0 254.208 0 0 18.176 0 36.16 0 54.272zM623.552 432.832c0-18.368 0-36.352 0-54.656 84.736 0 169.152 0 253.952 0 0 18.56 0 36.416 0 54.656-84.8 0-169.28 0-253.952 0zM623.488 291.264c84.736 0 169.28 0 254.016 0 0 18.176 0 36.032 0 54.4-84.992 0-169.408 0-254.016 0 0-18.304 0-36.224 0-54.4z" />
<glyph unicode="&#xe916;" glyph-name="wuliu" d="M351.941 384.097h-127.978c-17.717 0-31.995 14.277-31.995 31.995s14.277 31.995 31.995 31.995h95.984v95.984c0 17.717 14.277 31.995 31.995 31.995s31.995-14.277 31.995-31.995v-127.978c0-17.717-14.277-31.995-31.995-31.995zM702.162 293.101c-61.925 0-113.701-43.348-127.29-101.144h-123.85c-13.589 57.969-65.365 101.144-127.29 101.144-72.246 0-131.075-58.829-131.075-131.075 0-72.418 58.829-131.247 131.075-131.247 60.377 0 110.777 41.283 125.914 97.016h126.43c15.137-55.733 65.537-97.016 126.086-97.016 72.246 0 131.075 58.829 131.075 131.075s-58.829 131.247-131.075 131.247zM323.731 94.941c-36.983 0-67.086 30.102-67.086 67.258 0 36.983 30.102 67.086 67.086 67.086s67.086-30.102 67.086-67.086c0-37.155-30.102-67.258-67.086-67.258zM702.162 95.113c-36.983 0-67.086 30.102-67.086 67.086s30.102 67.086 67.086 67.086c36.983 0 67.086-30.102 67.086-67.086s-30.102-67.086-67.086-67.086zM864.027 864.016h-464.266c-44.036 0-79.815-35.779-79.815-79.815v-92.544l-194.548-97.704c-1.376-0.688-2.752-1.548-3.956-2.408-36.123-25.458-56.077-65.021-56.077-111.465v-322.010c0-17.717 14.277-31.995 31.995-31.995s31.995 14.277 31.995 31.995v322.010c0 24.942 9.117 44.552 27.006 57.969l210.029 105.273c1.376 0.688 2.408 2.064 3.612 2.924 1.892 1.376 3.784 2.58 5.332 4.128 1.376 1.548 2.408 3.268 3.44 4.988s2.236 3.268 2.924 5.332c0.86 2.236 1.032 4.472 1.376 6.709 0.172 1.548 0.86 2.924 0.86 4.472v112.325c0 8.601 7.053 15.825 15.825 15.825h464.266c17.545 0 31.995-14.621 31.995-32.511v-607.382c0-17.717 14.277-31.995 31.995-31.995s31.995 14.277 31.995 31.995v607.382c0 53.152-43.176 96.5-95.984 96.5z" />
<glyph unicode="&#xe9e1;" glyph-name="smile" d="M512-64c282.77 0 512 229.23 512 512s-229.23 512-512 512-512-229.23-512-512 229.23-512 512-512zM512 864c229.75 0 416-186.25 416-416s-186.25-416-416-416-416 186.25-416 416 186.25 416 416 416zM256 640c0 35.346 28.654 64 64 64s64-28.654 64-64c0-35.346-28.654-64-64-64s-64 28.654-64 64zM640 640c0 35.346 28.654 64 64 64s64-28.654 64-64c0-35.346-28.654-64-64-64s-64 28.654-64 64zM704.098 332.74l82.328-49.396c-55.962-93.070-157.916-155.344-274.426-155.344s-218.464 62.274-274.426 155.344l82.328 49.396c39.174-65.148 110.542-108.74 192.098-108.74s152.924 43.592 192.098 108.74z" />
</font>
</defs>
</svg>
